<?xml version="1.0" encoding="UTF-8"?>
<svg version="1.1" xmlns="http://www.w3.org/2000/svg" width="630" height="310">
<path d="M0 0 C0.65355695 -0.00256327 1.3071139 -0.00512655 1.9804756 -0.0077675 C4.16250516 -0.01269472 6.3438372 0.00376901 8.52580261 0.02018738 C10.0930225 0.02103388 11.66024357 0.02055805 13.22746277 0.01885986 C17.47713558 0.0179994 21.72655417 0.03563338 25.97616792 0.05658174 C30.41910655 0.07534003 34.86205107 0.07709831 39.30502319 0.08065796 C47.7162051 0.08998091 56.12726997 0.11459809 64.53840035 0.14470643 C74.11510114 0.17824263 83.69180753 0.19473449 93.26855242 0.20979273 C112.9665911 0.24114742 132.66452444 0.29391281 152.36247253 0.36076355 C152.36247253 0.69076355 152.36247253 1.02076355 152.36247253 1.36076355 C151.40808289 1.51110046 150.45369324 1.66143738 149.47038269 1.81632996 C74.88622718 11.53296709 74.88622718 11.53296709 14.88981628 51.68107605 C12.63953506 54.86045556 10.48430588 58.09451546 8.36247253 61.36076355 C9.10497253 60.43263855 9.84747253 59.50451355 10.61247253 58.54826355 C43.75189101 20.22113236 100.38334913 9.87825215 148.25309753 5.85295105 C161.93307754 4.89028579 175.65928778 5.10365578 189.36247253 5.36076355 C188.08221336 8.74198952 186.62265593 11.81421809 184.78044128 14.92326355 C184.26723328 15.79176941 183.75402527 16.66027527 183.2252655 17.55509949 C182.67241882 18.48096863 182.11957214 19.40683777 181.54997253 20.36076355 C180.97392273 21.33046082 180.39787292 22.30015808 179.80436707 23.29924011 C168.09652426 42.93635542 168.09652426 42.93635542 163.23027039 50.14149475 C161.70449455 52.77126677 160.76134324 54.95232338 159.77111816 57.78120422 C157.5978894 63.23072175 155.16979153 67.82912523 150.36247253 71.36076355 C140.78170288 74.51162213 129.93122503 73.51279981 119.96742082 73.18585443 C115.93344312 73.07267308 111.89918142 73.06270849 107.86386108 73.04139709 C100.23691982 72.98563207 92.61466952 72.83820734 84.9897868 72.65710628 C76.30354309 72.45531364 67.6170649 72.3568011 58.92905772 72.26658845 C41.07087767 72.07886117 23.21705319 71.7626458 5.36247253 71.36076355 C4.96921435 78.33745512 5.73151214 83.87732544 8.36247253 90.36076355 C9.01770905 90.35854294 9.67294556 90.35632233 10.34803772 90.35403442 C26.35997195 90.30254054 42.37122692 90.29572275 58.38316345 90.3374176 C66.12677607 90.35652679 73.86986159 90.36102569 81.6134491 90.33000183 C88.37012606 90.30297023 95.12611981 90.30450048 101.88277245 90.33902264 C105.45404993 90.35630668 109.02410573 90.36017635 112.59532166 90.32972717 C128.19830401 90.2064315 141.16968075 90.30549929 154.36247253 99.36076355 C155.95792296 100.3336014 157.55403872 101.30535142 159.15153503 102.27482605 C160.44119707 103.16267897 161.72023119 104.06619282 162.98747253 104.98576355 C163.68421082 105.48737 164.3809491 105.98897644 165.09880066 106.50578308 C186.56892694 122.4032492 198.46487856 141.98973145 202.63200378 168.4427948 C205.43077476 188.94097981 203.78666138 206.7492684 191.51481628 223.9506073 C180.46955216 238.20185266 166.45366003 249.23908854 150.36247253 257.36076355 C149.6647171 257.76978912 148.96696167 258.1788147 148.24806213 258.60023499 C137.60381829 264.04025024 126.31632735 262.98913268 114.65934753 262.8490448 C112.36722082 262.83970527 110.07508404 262.83259455 107.78294373 262.8276062 C101.78554641 262.80862636 95.78876624 262.75960348 89.79161072 262.7040863 C83.65776413 262.65269871 77.52381665 262.63005063 71.38981628 262.60490417 C59.38038861 262.55147563 47.37157874 262.46361375 35.36247253 262.36076355 C35.36247253 255.76076355 35.36247253 249.16076355 35.36247253 242.36076355 C41.30247253 242.36076355 47.24247253 242.36076355 53.36247253 242.36076355 C53.36247253 235.43076355 53.36247253 228.50076355 53.36247253 221.36076355 C47.42247253 221.36076355 41.48247253 221.36076355 35.36247253 221.36076355 C35.36247253 214.10076355 35.36247253 206.84076355 35.36247253 199.36076355 C40.07270691 199.28728699 40.07270691 199.28728699 44.87809753 199.21232605 C91.63377984 200.69437542 91.63377984 200.69437542 136.36247253 190.36076355 C136.46498926 195.48659966 136.39837453 200.31074133 135.36247253 205.36076355 C139.6207979 189.92433411 136.7780007 175.43831616 131.78947449 160.60417175 C131.52157608 159.80590469 131.25367767 159.00763763 130.97766113 158.18518066 C130.7746489 157.58312302 130.57163666 156.98106537 130.36247253 156.36076355 C129.65993064 156.36998148 128.95738874 156.37919941 128.2335577 156.38869667 C111.07915795 156.61027113 93.92512514 156.77537159 76.76960659 156.87888527 C68.47296958 156.93028459 60.17729211 157.00026078 51.88127136 157.11515808 C44.64396745 157.21534405 37.40735889 157.27946528 30.16938072 157.3016485 C26.34226269 157.3146015 22.51713248 157.34467616 18.69065666 157.41806412 C-11.44010281 157.97338423 -11.44010281 157.97338423 -23.63752747 146.36076355 C-25.37670904 144.91941482 -27.13833718 143.50982926 -28.90494633 142.10233498 C-31.56525937 139.94428638 -34.09452297 137.65591848 -36.63752747 135.36076355 C-37.44834778 134.6337323 -38.25916809 133.90670105 -39.09455872 133.15763855 C-51.79282409 121.14877112 -63.1438073 104.35045041 -63.97346497 86.47795105 C-64.4095063 61.33528357 -54.61504785 42.73700063 -37.39485168 24.71672058 C-29.52331556 16.69408363 -20.9810356 9.61682954 -11.63752747 3.36076355 C-10.54973983 2.59217278 -10.54973983 2.59217278 -9.43997669 1.80805492 C-6.04816098 0.05639228 -3.80731831 -0.00901496 0 0 Z M132.36247253 210.36076355 C133.36247253 212.36076355 133.36247253 212.36076355 133.36247253 212.36076355 Z M131.36247253 212.36076355 C132.36247253 214.36076355 132.36247253 214.36076355 132.36247253 214.36076355 Z M130.36247253 214.36076355 C131.36247253 216.36076355 131.36247253 216.36076355 131.36247253 216.36076355 Z M129.36247253 216.36076355 C130.36247253 218.36076355 130.36247253 218.36076355 130.36247253 218.36076355 Z " fill="#008080" transform="translate(90.63752746582031,29.639236450195313)"/>
<path d="M0 0 C20.79 0 41.58 0 63 0 C63 67.32 63 134.64 63 204 C48.28129229 211.35935385 33.47657332 216.64568833 17.5 220.5 C15.91626587 220.88273071 15.91626587 220.88273071 14.30053711 221.27319336 C9.25205315 222.43621841 5.27702779 223 0 223 C0 149.41 0 75.82 0 0 Z M22 21 C22 28.26 22 35.52 22 43 C29.26 43 36.52 43 44 43 C44 35.74 44 28.48 44 21 C36.74 21 29.48 21 22 21 Z " fill="#008080" transform="translate(480,48)"/>
<path d="M0 0 C6.93 0 13.86 0 21 0 C21 6.93 21 13.86 21 21 C14.4 21 7.8 21 1 21 C1 27.93 1 34.86 1 42 C-5.6 42 -12.2 42 -19 42 C-19 49.26 -19 56.52 -19 64 C-11.74 64 -4.48 64 3 64 C3 56.74 3 49.48 3 42 C9.27 42 15.54 42 22 42 C22 90.51 22 139.02 22 189 C15.14635734 189.62305842 8.53282798 190.19460834 1.6875 190.1875 C0.84719238 190.18669434 0.00688477 190.18588867 -0.85888672 190.18505859 C-7.47519229 190.12295081 -14.03570964 189.71227577 -20.625 189.125 C-21.51227783 189.04660889 -22.39955566 188.96821777 -23.3137207 188.88745117 C-29.37544085 188.29385676 -34.93344434 187.21331113 -41 186 C-41 131.55 -41 77.1 -41 21 C-27.47 21 -13.94 21 0 21 C0 14.07 0 7.14 0 0 Z " fill="#008080" transform="translate(447,84)"/>
<path d="M0 0 C-1.28025917 3.38122597 -2.7398166 6.45345455 -4.58203125 9.5625 C-5.09523926 10.43100586 -5.60844727 11.29951172 -6.13720703 12.19433594 C-6.69005371 13.12020508 -7.24290039 14.04607422 -7.8125 15 C-8.67657471 16.4545459 -8.67657471 16.4545459 -9.55810547 17.93847656 C-21.34497146 37.70813444 -21.34497146 37.70813444 -26.22167969 44.9050293 C-27.73580712 47.54020137 -28.63573164 49.7580152 -29.59863281 52.60473633 C-31.7277049 58.09910826 -34.00705972 62.6405883 -39 66 C-49.51282265 69.01170999 -61.11534972 67.79736142 -71.91521454 67.29586792 C-76.25137341 67.11407313 -80.5893041 67.03603371 -84.92822266 66.94921875 C-92.07049847 66.79512772 -99.20902923 66.58523632 -106.34863281 66.33740234 C-116.58309768 65.98712322 -126.81513406 65.81740755 -137.0546875 65.70703125 C-138.63458281 65.68941297 -140.21447783 65.67176904 -141.79437256 65.65409851 C-144.09384473 65.62853181 -146.39331768 65.60311182 -148.69279861 65.5783453 C-156.49112486 65.49245424 -164.28843598 65.35960496 -172.0859375 65.21875 C-173.91292679 65.18579582 -173.91292679 65.18579582 -175.77682495 65.1521759 C-178.51789773 65.10218362 -181.25895611 65.05154815 -184 65 C-181.81485624 52.5383186 -169.63813987 42.64107989 -159.6796875 35.58984375 C-113.62415608 4.36126908 -54.1010677 -1.01507825 0 0 Z " fill="#3A4141" transform="translate(280,35)"/>
<path d="M0 0 C20.79 0 41.58 0 63 0 C63 36.3 63 72.6 63 110 C49.07972468 108.01138924 35.97178758 103.17300115 22.9375 98 C21.9160791 97.59724854 20.8946582 97.19449707 19.84228516 96.77954102 C18.85147949 96.37791748 17.86067383 95.97629395 16.83984375 95.5625 C15.54614868 95.03849609 15.54614868 95.03849609 14.22631836 94.50390625 C9.36696671 92.23878282 4.70670615 89.56729426 0 87 C0 58.29 0 29.58 0 0 Z " fill="#008080" transform="translate(331,157)"/>
<path d="M0 0 C0.33 1.32 0.66 2.64 1 4 C0.34 4 -0.32 4 -1 4 C-1.268125 4.88558594 -1.53625 5.77117187 -1.8125 6.68359375 C-9.52259484 28.21606255 -30.76095895 47.65935841 -50 59 C-50.59216309 59.36174316 -51.18432617 59.72348633 -51.79443359 60.09619141 C-71.93972564 72.31601053 -94.01989592 75.42342384 -117.1875 75.375 C-118.58270874 75.37468277 -118.58270874 75.37468277 -120.00610352 75.37435913 C-135.02045315 75.34031189 -149.3246282 74.40773278 -164 71 C-164.82773926 70.81808105 -165.65547852 70.63616211 -166.50830078 70.44873047 C-202.4350989 62.38088237 -227.78401793 37.77041104 -247.10400391 7.65307617 C-248 6 -248 6 -248 4 C-244.98001551 5.40796574 -242.4259392 7.08361489 -239.75 9.0625 C-205.52661935 33.19951773 -163.05533666 43.4483741 -121.625 43.4375 C-120.31722595 43.43910126 -120.31722595 43.43910126 -118.98303223 43.44073486 C-103.80778692 43.41405814 -89.71724117 41.91800693 -75 38 C-74.11554199 37.77538086 -73.23108398 37.55076172 -72.31982422 37.31933594 C-47.51057928 30.92985093 -23.18632439 20.14187999 -4 3 C-2.67904269 1.98370793 -1.35046921 0.97673471 0 0 Z " fill="#3C4646" transform="translate(568,235)"/>
<path d="M0 0 C0.96837917 14.28359279 -5.06072299 26.3460988 -14.0625 37.0625 C-31.28839045 55.40807332 -57.23431509 63.73065894 -81.25 68.4375 C-82.08233154 68.6015332 -82.91466309 68.76556641 -83.7722168 68.93457031 C-89.57880438 69.97727179 -95.10254926 70.13117106 -101 70 C-101 64.06 -101 58.12 -101 52 C-95.06 52 -89.12 52 -83 52 C-83 45.07 -83 38.14 -83 31 C-88.94 31 -94.88 31 -101 31 C-101 23.74 -101 16.48 -101 9 C-97.85984375 8.95101562 -94.7196875 8.90203125 -91.484375 8.8515625 C-52.93252045 8.49118725 -52.93252045 8.49118725 -14.625 4.5625 C-13.92262207 4.45244629 -13.22024414 4.34239258 -12.49658203 4.22900391 C-8.43598013 3.50277503 -3.76526458 0 0 0 Z " fill="#394242" transform="translate(227,220)"/>
<path d="M0 0 C3.78801669 1.39766233 7.07756733 3.1491143 10.5078125 5.2734375 C11.56838867 5.92795898 12.62896484 6.58248047 13.72167969 7.25683594 C14.85622141 7.96272732 15.99065943 8.66878541 17.125 9.375 C18.29054364 10.0969162 19.45623504 10.81859391 20.62207031 11.54003906 C29.82797726 17.24376117 39.02604393 22.96476132 48.14257812 28.81054688 C49.37010072 29.59662601 50.60313959 30.37416401 51.84179688 31.14257812 C53.26242343 32.04269507 54.63729267 33.01439407 56 34 C56 34.66 56 35.32 56 36 C46.1 36 36.2 36 26 36 C25.15695312 38.15402344 24.31390625 40.30804688 23.4453125 42.52734375 C22.62617052 44.60637309 21.80465933 46.68445118 20.98291016 48.76245117 C20.41206239 50.20971433 19.84369179 51.65795707 19.27783203 53.10717773 C18.46512157 55.18734645 17.64363443 57.26385608 16.8203125 59.33984375 C16.56814972 59.99089584 16.31598694 60.64194794 16.05618286 61.31272888 C14.22774341 65.88612829 14.22774341 65.88612829 12 67 C9.2020878 55.70132724 7.07239517 44.27792907 4.9284668 32.84106445 C4.3091348 29.5445883 3.68108875 26.24984487 3.05273438 22.95507812 C2.65571889 20.8464541 2.25921608 18.73773346 1.86328125 16.62890625 C1.6758284 15.65071426 1.48837555 14.67252228 1.29524231 13.66468811 C0.4379579 9.04609713 -0.23545571 4.72244183 0 0 Z " fill="#384343" transform="translate(574,50)"/>
<path d="M0 0 C-0.5895145 7.80262047 -1.93755114 15.34771661 -3.50390625 23.0078125 C-3.7466478 24.2144455 -3.98938934 25.42107849 -4.23948669 26.66427612 C-5.00928076 30.48545128 -5.78578074 34.30522715 -6.5625 38.125 C-7.08888295 40.72896738 -7.61373053 43.33324128 -8.13867188 45.9375 C-9.42068748 52.29270496 -10.70819884 58.64677731 -12 65 C-12.66 65 -13.32 65 -14 65 C-17.3 55.76 -20.6 46.52 -24 37 C-35.22 36.67 -46.44 36.34 -58 36 C-56.71924573 32.15773719 -55.44356639 31.80134892 -51.98046875 29.8046875 C-50.90788818 29.17884766 -49.83530762 28.55300781 -48.73022461 27.90820312 C-47.54935832 27.23039573 -46.36844905 26.5526632 -45.1875 25.875 C-42.73209139 24.44922231 -40.2802287 23.01738961 -37.828125 21.5859375 C-37.19269272 21.21615784 -36.55726044 20.84637817 -35.90257263 20.46539307 C-31.25059348 17.75191134 -26.63973389 14.97632423 -22.046875 12.1640625 C-21.08488945 11.5755098 -21.08488945 11.5755098 -20.10346985 10.97506714 C-17.59313387 9.43772542 -15.08380647 7.89882571 -12.57870483 6.35296631 C-10.84512307 5.28367491 -9.10818695 4.21982746 -7.37109375 3.15625 C-6.38036865 2.54587891 -5.38964355 1.93550781 -4.36889648 1.30664062 C-2 0 -2 0 0 0 Z " fill="#384343" transform="translate(603,192)"/>
<path d="M0 0 C6.93 0 13.86 0 21 0 C21 6.93 21 13.86 21 21 C14.07 21 7.14 21 0 21 C0 14.07 0 7.14 0 0 Z " fill="#008080" transform="translate(459,27)"/>
<path d="M0 0 C6.27 0 12.54 0 19 0 C19 5.61 19 11.22 19 17 C12.73 17 6.46 17 0 17 C0 11.39 0 5.78 0 0 Z " fill="#3B4141" transform="translate(88,273)"/>
<path d="M0 0 C6.27 0 12.54 0 19 0 C19 5.61 19 11.22 19 17 C12.73 17 6.46 17 0 17 C0 11.39 0 5.78 0 0 Z " fill="#3B4141" transform="translate(106,251)"/>
<path d="M0 0 C6.27 0 12.54 0 19 0 C19 5.61 19 11.22 19 17 C12.73 17 6.46 17 0 17 C0 11.39 0 5.78 0 0 Z " fill="#3B4141" transform="translate(64,227)"/>
<path d="M0 0 C5.28 0 10.56 0 16 0 C16 5.28 16 10.56 16 16 C10.72 16 5.44 16 0 16 C0 10.72 0 5.44 0 0 Z " fill="#008080" transform="translate(424,62)"/>
<path d="M0 0 C5.28 0 10.56 0 16 0 C16 5.28 16 10.56 16 16 C10.72 16 5.44 16 0 16 C0 10.72 0 5.44 0 0 Z " fill="#008080" transform="translate(491,0)"/>
<path d="M0 0 C3.63 0 7.26 0 11 0 C11 3.3 11 6.6 11 10 C7.37 10 3.74 10 0 10 C0 12.97 0 15.94 0 19 C-3.63 19 -7.26 19 -11 19 C-11 15.7 -11 12.4 -11 9 C-7.37 9 -3.74 9 0 9 C0 6.03 0 3.06 0 0 Z " fill="#3B4141" transform="translate(94,236)"/>
<path d="M0 0 C4.29 0 8.58 0 13 0 C13 4.29 13 8.58 13 13 C8.71 13 4.42 13 0 13 C0 8.71 0 4.42 0 0 Z " fill="#3B4141" transform="translate(103,220)"/>
<path d="M0 0 C4.29 0 8.58 0 13 0 C13 3.96 13 7.92 13 12 C8.71 12 4.42 12 0 12 C0 8.04 0 4.08 0 0 Z " fill="#3B4141" transform="translate(46,273)"/>
<path d="M0 0 C4.29 0 8.58 0 13 0 C13 3.96 13 7.92 13 12 C8.71 12 4.42 12 0 12 C0 8.04 0 4.08 0 0 Z " fill="#3B4141" transform="translate(67,256)"/>
<path d="M0 0 C4.29 0 8.58 0 13 0 C13 3.96 13 7.92 13 12 C8.71 12 4.42 12 0 12 C0 8.04 0 4.08 0 0 Z " fill="#3B4141" transform="translate(35,236)"/>
<path d="M0 0 C3.96 0 7.92 0 12 0 C12 3.96 12 7.92 12 12 C8.04 12 4.08 12 0 12 C0 8.04 0 4.08 0 0 Z " fill="#3B4141" transform="translate(15,256)"/>
<path d="M0 0 C3.63 0 7.26 0 11 0 C11 3.3 11 6.6 11 10 C7.37 10 3.74 10 0 10 C0 6.7 0 3.4 0 0 Z " fill="#3B4141" transform="translate(0,283)"/>
<path d="M0 0 C3.63 0 7.26 0 11 0 C11 3.3 11 6.6 11 10 C7.37 10 3.74 10 0 10 C0 6.7 0 3.4 0 0 Z " fill="#3B4141" transform="translate(6,234)"/>
<path d="M0 0 C3.3 0 6.6 0 10 0 C10 3.3 10 6.6 10 10 C6.7 10 3.4 10 0 10 C0 6.7 0 3.4 0 0 Z " fill="#3B4141" transform="translate(47,251)"/>
<path d="M0 0 C0.66 0.33 1.32 0.66 2 1 C-3.94 6.94 -9.88 12.88 -16 19 C-16 14.80130728 -14.19810866 13.66463027 -11.375 10.625 C-10.9207666 10.13475342 -10.4665332 9.64450684 -9.99853516 9.1394043 C-6.85830473 5.79321137 -3.64356736 2.78061719 0 0 Z " fill="#2F4C4C" transform="translate(117,73)"/>
<path d="M0 0 C0.66 0.33 1.32 0.66 2 1 C1.67 1.33 1.34 1.66 1 2 C9.25 2.33 17.5 2.66 26 3 C26 3.33 26 3.66 26 4 C16.43 4 6.86 4 -3 4 C-2.67 3.01 -2.34 2.02 -2 1 C-1.34 0.67 -0.68 0.34 0 0 Z " fill="#2B5151" transform="translate(548,224)"/>
<path d="M0 0 C0.33 1.32 0.66 2.64 1 4 C0.34 4 -0.32 4 -1 4 C-1.66 5.32 -2.32 6.64 -3 8 C-3.33 7.34 -3.66 6.68 -4 6 C-4.66 5.67 -5.32 5.34 -6 5 C-4.02 3.35 -2.04 1.7 0 0 Z " fill="#436969" transform="translate(568,235)"/>
<path d="M0 0 C2.88437779 1.29299694 4.87219421 2.65941363 7 5 C6.01 5 5.02 5 4 5 C3.67 5.66 3.34 6.32 3 7 C0 2.25 0 2.25 0 0 Z " fill="#598181" transform="translate(320,239)"/>
</svg>
